<svg width="50" height="51" viewBox="0 0 50 51" fill="none" xmlns="http://www.w3.org/2000/svg">
<rect x="0.5" y="0.990112" width="49" height="49" rx="24.5" fill="white"/>
<rect x="0.5" y="0.990112" width="49" height="49" rx="24.5" stroke="white"/>
<g clip-path="url(#clip0_1_532)">
<path d="M24.0418 13.7121L15.243 21.8078C14.7737 22.2621 14.6122 23.2369 15.1316 23.7683C15.6513 24.2998 16.6372 24.2963 17.1531 23.7614L23.6075 17.8303V36.2843C23.6075 37.0294 24.2296 37.6336 24.9968 37.6336C25.764 37.6336 26.3862 37.0294 26.3862 36.2843V17.8303L32.8406 23.7614C33.3565 24.2963 34.3798 24.3318 34.8621 23.7683C35.3078 23.2475 35.3272 22.2806 34.7506 21.8078L25.9519 13.7121C25.5966 13.3679 24.6623 13.0997 24.0418 13.7121Z" fill="black"/>
</g>
<defs>
<clipPath id="clip0_1_532">
<rect width="20.3809" height="24.287" fill="white" transform="translate(14.8096 13.3466)"/>
</clipPath>
</defs>
</svg>
